Coordinates
version=1
nRows=14
nColumns=36
inDegrees=yes

Units are S.I. units (second, meters, Newtons, ...)
If the header above contains a line with 'inDegrees', this indicates whether rotational values are in degrees (yes) or radians (no).

endheader
time	pelvis_tilt	pelvis_list	pelvis_rotation	pelvis_tx	pelvis_ty	pelvis_tz	hip_flexion_r	hip_adduction_r	hip_rotation_r	knee_angle_r	knee_angle_r_beta	ankle_angle_r	subtalar_angle_r	mtp_angle_r	hip_flexion_l	hip_adduction_l	hip_rotation_l	knee_angle_l	knee_angle_l_beta	ankle_angle_l	subtalar_angle_l	mtp_angle_l	lumbar_extension	lumbar_bending	lumbar_rotation	arm_flex_r	arm_add_r	arm_rot_r	elbow_flex_r	pro_sup_r	arm_flex_l	arm_add_l	arm_rot_l	elbow_flex_l	pro_sup_l
      0.42000000	     -1.24431578	     -1.46486626	      3.90636611	      0.34116046	      1.15856014	     -0.24785046	     -1.68227398	      5.37526462	     -5.46500234	      3.72237781	      0.06496775	      8.33290584	     -0.12705795	     -5.94555212	     29.78702440	     -1.03194875	     -2.03546083	     28.14449378	      0.49121408	     -3.42775059	     -4.39765401	     -5.94555212	    -16.40284253	      7.64854885	      2.14959786	     -7.56765431	    -12.59466302	    -13.32631155	     52.68097908	    109.68204908	     -9.81189963	     -7.15368800	      0.26688898	     54.19826704	    108.09381980
      0.43000000	     -1.14828014	     -1.62373674	      3.71271783	      0.35047308	      1.15772051	     -0.24707648	     -2.32030203	      5.61099104	     -5.20213643	      3.68169537	      0.06425771	      8.65250654	     -0.02271817	     -5.98087081	     29.72978166	     -1.17361374	     -2.37889443	     26.14333301	      0.45628724	     -3.21977926	     -3.06144076	     -5.98087081	    -16.56876447	      7.57947656	      2.18856693	     -7.42107712	    -12.72156327	    -13.04860992	     52.84350693	    109.74018447	     -9.59125375	     -7.14073375	      0.12850366	     53.95505267	    108.14234060
      0.44000000	     -1.10730159	     -1.76635408	      3.51383021	      0.35981883	      1.15679288	     -0.24634572	     -2.87476930	      5.81450427	     -4.98586763	      3.69623405	      0.06451145	      8.98702549	      0.05199633	     -6.01142400	     29.68882466	     -1.27612654	     -2.68239556	     24.18403480	      0.42209103	     -3.20028921	     -1.93601980	     -6.01142400	    -16.66584977	      7.49117149	      2.21834234	     -7.31484048	    -12.81383096	    -12.79509456	     53.01545419	    109.80618972	     -9.34171555	     -7.09780565	     -0.05380950	     53.66455352	    108.18450230
      0.45000000	     -1.07380481	     -1.92251900	      3.31143660	      0.36925272	      1.15580280	     -0.24560721	     -3.40023156	      6.02439202	     -4.80638290	      3.75107861	      0.06546867	      9.31461800	      0.12431461	     -6.03759540	     29.61756451	     -1.38457211	     -2.95540402	     22.28263214	      0.38890530	     -3.20609678	     -0.88584030	     -6.03759540	    -16.74546967	      7.39240551	      2.25518882	     -7.25379621	    -12.93293724	    -12.56940828	     53.17162524	    109.87783239	     -9.11935061	     -7.08437688	     -0.26384779	     53.36920526	    108.22187545
      0.46000000	     -1.00264371	     -2.09351109	      3.11614198	      0.37875235	      1.15485145	     -0.24490658	     -3.94628655	      6.24576482	     -4.62449967	      3.85488398	      0.06728042	      9.62585344	      0.25295084	     -6.06922832	     29.48234618	     -1.51116765	     -3.25189172	     20.47188044	      0.35730172	     -3.13919390	      0.16984870	     -6.06922832	    -16.86113613	      7.30494415	      2.28329107	     -7.19787257	    -13.04455119	    -12.34055090	     53.29481012	    109.97150325	     -8.89972671	     -7.05434457	     -0.48552854	     53.10347861	    108.28758091
      0.47000000	     -1.04853487	     -2.28807367	      2.92473473	      0.38826351	      1.15370043	     -0.24423999	     -4.33425601	      6.48281506	     -4.44846675	      4.02356969	      0.07022454	      9.88909276	      0.27612887	     -6.08324477	     29.43305319	     -1.62648380	     -3.38752943	     18.69809735	      0.32634336	     -3.16044199	      1.03055616	     -6.08324477	    -16.85050001	      7.22978718	      2.31044275	     -7.19368079	    -13.12471738	    -12.15075626	     53.42574961	    110.03380705	     -8.69752837	     -7.01682442	     -0.69086928	     52.84739576	    108.29630681
      0.48000000	     -1.04191336	     -2.47246186	      2.71456592	      0.39792573	      1.15262871	     -0.24357070	     -4.79211089	      6.70762303	     -4.25455645	      4.18668390	      0.07307142	     10.15490293	      0.31543494	     -6.09592176	     29.29166736	     -1.75609708	     -3.61393398	     17.01653172	      0.29699451	     -3.09576701	      1.87789271	     -6.09592176	    -16.89416485	      7.12975090	      2.32616979	     -7.18945072	    -13.21689001	    -11.95010387	     53.51430026	    110.09759308	     -8.48619033	     -6.99660880	     -0.91486660	     52.55899975	    108.29858467
      0.49000000	     -0.99830362	     -2.62813645	      2.49406474	      0.40777038	      1.15159779	     -0.24290973	     -5.31981011	      6.90079514	     -4.06154770	      4.31225218	      0.07526300	     10.45364976	      0.35689365	     -6.11080191	     29.05788465	     -1.87627752	     -3.94633090	     15.37733893	      0.26838519	     -2.95041648	      2.80053848	     -6.11080191	    -16.96125587	      6.97998845	      2.34503588	     -7.20603331	    -13.31733428	    -11.71349293	     53.55717021	    110.17262025	     -8.29379973	     -6.95811907	     -1.17379139	     52.22538944	    108.30435849
      0.50000000	     -1.00825622	     -2.80054169	      2.25815927	      0.41767494	      1.15047101	     -0.24226144	     -5.78013460	      7.10139902	     -3.83641296	      4.46595835	      0.07794568	     10.69444237	      0.40070036	     -6.12442982	     28.85384991	     -2.01177342	     -4.26630616	     13.81884712	      0.24118438	     -2.75617027	      3.68008652	     -6.12442982	    -16.97424554	      6.83886495	      2.34959710	     -7.23538626	    -13.40970456	    -11.48976548	     53.57461366	    110.24107516	     -8.11834106	     -6.93222687	     -1.43330319	     51.92845435	    108.30838418
      0.51000000	     -1.06469708	     -2.97062151	      2.00590699	      0.42765883	      1.14925127	     -0.24162035	     -6.19276480	      7.29062862	     -3.58447655	      4.63305243	      0.08086202	     10.89936348	      0.43562893	     -6.13599880	     28.66096688	     -2.14302140	     -4.58374781	     12.31312943	      0.21490465	     -2.54892055	      4.53446872	     -6.13599880	    -16.95046240	      6.67399953	      2.36124415	     -7.28663509	    -13.49933381	    -11.27397647	     53.56645571	    110.29899144	     -7.97411543	     -6.89988881	     -1.70182024	     51.61700100	    108.30045940
      0.52000000	     -1.10831653	     -3.11419570	      1.74353891	      0.43781119	      1.14806600	     -0.24098070	     -6.64695648	      7.44748178	     -3.32577014	      4.75924476	      0.08306449	     11.12083425	      0.46263239	     -6.14903144	     28.40625186	     -2.25681525	     -5.00619604	     10.85817651	      0.18951093	     -2.32062872	      5.48445704	     -6.14903144	    -16.93138669	      6.47851921	      2.38035089	     -7.36389401	    -13.59892093	    -11.02436912	     53.50205920	    110.35793293	     -7.81161394	     -6.86431804	     -2.03689000	     51.25711903	    108.28567004
      0.53000000	     -1.18909170	     -3.26801583	      1.45215472	      0.44805188	      1.14679986	     -0.24035708	     -7.06243117	      7.59893670	     -3.06095026	      4.90195362	      0.08555523	     11.29361476	      0.50646515	     -6.16178151	     28.15278613	     -2.38610549	     -5.43804181	      9.46088522	      0.16512360	     -2.07173383	      6.45610760	     -6.16178151	    -16.85179828	      6.26580256	      2.40190924	     -7.44676906	    -13.68883997	    -10.78018117	     53.41704869	    110.41052766	     -7.67929745	     -6.81315937	     -2.39212141	     50.90759618	    108.26624270
      0.54000000	     -1.15635495	     -3.40292339	      1.12381281	      0.45853028	      1.14567546	     -0.23964900	     -7.65214179	      7.72665973	     -2.80640314	      4.95918702	      0.08655414	     11.46038536	      0.62998679	     -6.20541793	     27.80711762	     -2.57203658	     -6.44181154	      8.28191871	      0.14454675	     -1.50208030	      8.13955135	     -6.20541793	    -16.91685036	      6.01602159	      2.32472512	     -7.42559338	    -13.81519085	    -10.34412184	     53.20896697	    110.53096434	     -7.66054348	     -6.72097567	     -3.02871598	     50.62751533	    108.33273304
      0.55000000	     -1.41924442	     -3.67198918	      0.86324417	      0.46893030	      1.14405373	     -0.23912009	     -7.86727081	      7.98893887	     -2.75809445	      5.09659062	      0.08895229	     11.51224995	      0.63519450	     -6.20976485	     27.78020609	     -2.76235410	     -6.70335870	      7.19086720	      0.12550431	     -1.25092188	      8.44841732	     -6.20976485	    -16.64644969	      5.95822349	      2.26787268	     -7.56160395	    -13.86177385	    -10.29878061	     53.17567751	    110.54196266	     -7.70218658	     -6.73326600	     -3.19223858	     50.43054359	    108.31194104
